<?xml version="1.0" standalone="no"?><!DOCTYPE svg PUBLIC "-//W3C//DTD SVG 1.1//EN" "http://www.w3.org/Graphics/SVG/1.1/DTD/svg11.dtd"><svg t="1719323015446" class="icon" viewBox="0 0 1024 1024" version="1.1" xmlns="http://www.w3.org/2000/svg" p-id="20568" xmlns:xlink="http://www.w3.org/1999/xlink" ><path d="M0 512A512 512 0 1 0 512 0 512 512 0 0 0 0 512z" fill="#FBE9DA" p-id="20569"></path><path d="M675.552 351.008h90.336l-138.912-141.312v92.256a48.96 48.96 0 0 0 48.576 49.056z" fill="#E9AC7D" p-id="20570"></path><path d="M595.552 301.952V209.696H306.72a48.672 48.672 0 0 0-48.64 48.768v507.104a48.672 48.672 0 0 0 48.704 48.704h410.368a48.672 48.672 0 0 0 48.704-48.704V382.304H675.52a80.256 80.256 0 0 1-79.968-80.352z m20.32 122.272q-2.432 16.448-5.792 34.848c-2.272 12.256-4.832 25.152-7.744 37.76s-5.472 24.512-8.384 34.848l-38.08 20.64q7.264-1.92 13.536-3.872c3.872-0.96 7.744-2.272 11.616-3.552a92.352 92.352 0 0 0 10.016-3.2l-3.872 15.168a43.36 43.36 0 0 1-3.2 9.344 82.752 82.752 0 0 1-6.784 14.208 85.696 85.696 0 0 1-7.424 11.296 93.856 93.856 0 0 1-8.384 10.656l-35.2 10.656 28.8 5.152c-3.872 3.2-7.744 6.4-12.256 10.016-3.872 2.912-8.064 5.792-12.8 9.024a141.664 141.664 0 0 1-15.168 8.704 44.8 44.8 0 0 1-17.76 4.192 116.256 116.256 0 0 1-18.72-1.28 126.912 126.912 0 0 1-20.64-4.832c1.92-3.2 4.512-6.784 6.784-10.976 1.92-3.552 4.512-7.424 7.424-12.256s6.144-9.6 9.344-15.488c9.024-15.488 18.08-30.656 26.464-45.152s16-28.064 22.912-40c7.744-13.888 15.168-27.104 22.592-39.36-9.024 10.336-18.4 21.6-28.064 34.528-8.704 10.976-18.08 23.552-28.384 38.72s-20.96 31.296-32 48.704q-3.392 5.312-7.744 12.576c-2.912 4.832-5.792 9.6-9.024 15.168s-6.4 10.656-9.6 16.448l-9.6 16.448q-11.616 18.4-23.232 38.72a132.512 132.512 0 0 1 8.064-35.488 268 268 0 0 1 11.296-28.064c3.2-6.784 5.792-12.256 7.424-15.808s2.912-6.784 3.872-8.704a18.656 18.656 0 0 1 2.272-4.512c-0.96-0.96-0.96-3.552-0.64-6.784a106.176 106.176 0 0 1 3.2-13.216 203.328 203.328 0 0 1 9.344-24.192 306.528 306.528 0 0 1 17.088-34.208 356.544 356.544 0 0 1 24.192-36.448c9.024-11.936 18.72-23.552 29.024-35.2a275.84 275.84 0 0 1 32-30.016 227.584 227.584 0 0 1 32.576-21.6 83.616 83.616 0 0 1 31.616-9.344 70.72 70.72 0 0 1-0.64 25.824z" fill="#E9AC7D" p-id="20571"></path></svg>